# xmcd
#
# Track frame offsets:
#	182
#	24622
#	47447
#	72047
#	79495
#	98767
#	109162
#	131307
#	148252
#	165755
#	191505
#	208607
#	221750
#	236615
#	249365
#	263190
#
# Disc length: 3786 seconds
#
# Revision: 1
# Processed by: cddbd v1.5.2PL0 Copyright (c) Steve Scherf et al.
# Submitted via: EasyCDDAExtractor 16.0.6.1
#
DISCID=dc0ec810
DTITLE=Curtis Mayfield - Jazz and Blues Collection - Curtis Mayfield - Cd 26
DYEAR=1971
DGENRE=Blues
TTITLE0=Little Child Runnin' Wild
TTITLE1=Pusherman
TTITLE2=Freddie's Dead
TTITLE3=Junkie Chase
TTITLE4=Give Me Your Love
TTITLE5=Eddie You Should Know Better
TTITLE6=No Thing On Me (Cocaine On Me)
TTITLE7=Think
TTITLE8=Superfly
TTITLE9=Get Down
TTITLE10=People Get Ready
TTITLE11=For Your Precious Love
TTITLE12=I'm So Proud
TTITLE13=Once In My Life
TTITLE14=Preacher Man
TTITLE15=Love Oh Love
EXTD=
EXTT0=
EXTT1=
EXTT2=
EXTT3=
EXTT4=
EXTT5=
EXTT6=
EXTT7=
EXTT8=
EXTT9=
EXTT10=
EXTT11=
EXTT12=
EXTT13=
EXTT14=
EXTT15=
PLAYORDER=
